<?xml version="1.0" ?><!-- Uploaded to: SVG Repo, www.svgrepo.com, Generator: SVG Repo Mixer Tools -->
<svg width="800px" height="800px" viewBox="0 0 24 24" fill="none" xmlns="http://www.w3.org/2000/svg"><path d="M17 18C17 19.1046 16.1046 20 15 20H9C7.89543 20 7 19.1046 7 18V7M7 6C7 4.89543 7.89543 4 9 4H15C16.1046 4 17 4.89543 17 6V17M11 5H13" stroke="#1A6A83" stroke-linecap="round" stroke-width="0.5"/><circle cx="12" cy="19" fill="#1A6A83" r="0.5"/><path d="M8.5 8.25C8.5 7.30719 8.5 6.83579 8.79289 6.54289C9.08579 6.25 9.55719 6.25 10.5 6.25H14.5C15.4428 6.25 15.9142 6.25 16.2071 6.54289C16.5 6.83579 16.5 7.30719 16.5 8.25V16.25C16.5 17.1928 16.5 17.6642 16.2071 17.9571C15.9142 18.25 15.4428 18.25 14.5 18.25H10.5C9.55719 18.25 9.08579 18.25 8.79289 17.9571C8.5 17.6642 8.5 17.1928 8.5 16.25V8.25Z" fill="#00FFB0"/><path d="M8 8C8 7.05719 8 6.58579 8.29289 6.29289C8.58579 6 9.05719 6 10 6H14C14.9428 6 15.4142 6 15.7071 6.29289C16 6.58579 16 7.05719 16 8V16C16 16.9428 16 17.4142 15.7071 17.7071C15.4142 18 14.9428 18 14 18H10C9.05719 18 8.58579 18 8.29289 17.7071C8 17.4142 8 16.9428 8 16V8Z" stroke="#1A6A83" stroke-width="0.2"/></svg>